<svg xmlns="http://www.w3.org/2000/svg" width="360" height="480" viewBox="0 0 360 480" shape-rendering="crispEdges">
<defs>
 <radialGradient id="glow" cx="50%" cy="35%" r="55%"><stop offset="0" stop-color="#a65c2d" stop-opacity=".45"/><stop offset=".55" stop-color="#173438" stop-opacity=".18"/><stop offset="1" stop-color="#02090a" stop-opacity=".9"/></radialGradient>
</defs>
<rect width="360" height="480" fill="#061316"/>
<!-- stone wall -->
<path fill="#172d31" d="M0 0h360v480H0z"/>
<g fill="#29494a" opacity=".55">
 <path d="M0 18h80v18H0zM90 18h74v18H90zM174 18h88v18h-88zM272 18h88v18h-88z"/>
 <path d="M0 68h48v16H0zM57 68h92v16H57zM159 68h70v16h-70zM239 68h121v16H239z"/>
 <path d="M0 118h94v16H0zM103 118h80v16h-80zM192 118h70v16h-70zM271 118h89v16h-89z"/>
</g>
<!-- arch -->
<path fill="#2c4749" d="M58 238V166C58 80 113 35 180 35s122 45 122 131v72h-24v-70c0-70-41-108-98-108S82 98 82 168v70z"/>
<path fill="#0a171a" d="M82 238V169c0-69 41-109 98-109s98 40 98 109v69z"/>
<path fill="#061013" d="M101 238v-65c0-55 31-91 79-91s79 36 79 91v65z"/>
<!-- gate -->
<g fill="#1d3034" stroke="#476064" stroke-width="2">
 <path d="M105 89h14v149h-14zM139 77h14v161h-14zM173 72h14v166h-14zM207 77h14v161h-14zM241 89h14v149h-14z"/>
 <path d="M98 128h164v12H98zM98 179h164v12H98z"/>
</g>
<!-- warm light beyond gate -->
<ellipse cx="180" cy="224" rx="31" ry="46" fill="url(#glow)"/>
<rect x="174" y="213" width="12" height="20" fill="#c8792d"/>
<!-- sconces -->
<g>
 <g transform="translate(55 190)"><rect x="-5" y="0" width="10" height="70" fill="#3f4a46"/><rect x="-17" y="16" width="34" height="10" fill="#5b625a"/><path fill="#c15b2b" d="M0-34l17 36-7 17H-10L-17 2z"/><path fill="#f0b84d" d="M0-28l9 27-9 13-9-13z"/></g>
 <g transform="translate(305 190)"><rect x="-5" y="0" width="10" height="70" fill="#3f4a46"/><rect x="-17" y="16" width="34" height="10" fill="#5b625a"/><path fill="#c15b2b" d="M0-34l17 36-7 17H-10L-17 2z"/><path fill="#f0b84d" d="M0-28l9 27-9 13-9-13z"/></g>
</g>
<!-- corridor floor -->
<path fill="#0d2023" d="M75 238h210l75 242H0z"/>
<g stroke="#30484a" stroke-width="3" opacity=".8">
 <path d="M0 445h360M25 405h310M45 365h270M61 325h238M72 285h216"/>
 <path d="M78 238L25 480M119 238L92 480M180 238v242M241 238l27 242M282 238l53 242"/>
</g>
<!-- skull/debris -->
<g fill="#9a9583">
 <path d="M55 401h30v23H55zM49 407h42v16H49z"/><rect x="59" y="420" width="22" height="13"/>
</g><g fill="#182325"><rect x="57" y="409" width="9" height="8"/><rect x="73" y="409" width="9" height="8"/></g>
<rect x="295" y="388" width="34" height="52" fill="#5b4936"/><path stroke="#8d704a" stroke-width="4" d="M300 395h24M300 408h24M300 421h24"/>
<!-- blood -->
<path fill="#6b262d" d="M238 433h30v5h-30zM260 438h11v7h-11zM222 443h12v5h-12z"/>
<rect width="360" height="480" fill="url(#glow)"/>
</svg>
